HIERARCHY
ROOT Hips
{
    OFFSET   0.000000   0.000000   0.000000
    CHANNELS 6 Xposition Yposition Zposition Zrotation Xrotation Yrotation
    JOINT Chest
    {
        OFFSET   0.000000   8.007230   0.000000
        CHANNELS 3 Zrotation Xrotation Yrotation
        JOINT Chest2
        {
            OFFSET   0.000000  22.077100   0.000000
            CHANNELS 3 Zrotation Xrotation Yrotation
            JOINT Neck
            {
                OFFSET   0.000000  23.255100   0.000000
                CHANNELS 3 Zrotation Xrotation Yrotation
                JOINT Head
                {
                    OFFSET   0.000000  14.370100   1.956600
                    CHANNELS 3 Zrotation Xrotation Yrotation
                    End Site
                    {
                        OFFSET   0.000000  19.566000   0.000000
                    }
                }
            }
            JOINT LeftCollar
            {
                OFFSET   3.911900  19.017000  -0.467063
                CHANNELS 3 Zrotation Xrotation Yrotation
                JOINT LeftShoulder
                {
                    OFFSET  10.383700   0.000000   0.000000
                    CHANNELS 3 Zrotation Xrotation Yrotation
                    JOINT LeftElbow
                    {
                        OFFSET  26.662100   0.001193   0.000980
                        CHANNELS 3 Zrotation Xrotation Yrotation
                        JOINT LeftWrist
                        {
                            OFFSET  28.869000  -0.000059  -0.000082
                            CHANNELS 3 Zrotation Xrotation Yrotation
                            JOINT LeftFinger0
                            {
                                OFFSET   2.044650  -2.323450   3.252850
                                CHANNELS 3 Zrotation Xrotation Yrotation
                                JOINT LeftFinger01
                                {
                                    OFFSET   3.088130   0.000000   0.000000
                                    CHANNELS 3 Zrotation Xrotation Yrotation
                                    JOINT LeftFinger02
                                    {
                                        OFFSET   2.639460   0.000000   0.000000
                                        CHANNELS 3 Zrotation Xrotation Yrotation
                                        End Site
                                        {
                                            OFFSET   2.582190   0.000000   0.000000
                                        }
                                    }
                                }
                            }
                            JOINT LeftFinger1
                            {
                                OFFSET   8.364480   0.000000   3.252850
                                CHANNELS 3 Zrotation Xrotation Yrotation
                                JOINT LeftFinger11
                                {
                                    OFFSET   4.646930   0.000000   0.000000
                                    CHANNELS 3 Zrotation Xrotation Yrotation
                                    JOINT LeftFinger12
                                    {
                                        OFFSET   2.323470   0.000000   0.000000
                                        CHANNELS 3 Zrotation Xrotation Yrotation
                                        End Site
                                        {
                                            OFFSET   2.273050   0.000000   0.000000
                                        }
                                    }
                                }
                            }
                            JOINT LeftFinger2
                            {
                                OFFSET   8.364490   0.000016   1.078090
                                CHANNELS 3 Zrotation Xrotation Yrotation
                                JOINT LeftFinger21
                                {
                                    OFFSET   5.111610   0.000000   0.000000
                                    CHANNELS 3 Zrotation Xrotation Yrotation
                                    JOINT LeftFinger22
                                    {
                                        OFFSET   2.788150   0.000016   0.000000
                                        CHANNELS 3 Zrotation Xrotation Yrotation
                                        End Site
                                        {
                                            OFFSET   2.727660   0.000000   0.000000
                                        }
                                    }
                                }
                            }
                            JOINT LeftFinger3
                            {
                                OFFSET   7.899780   0.000015  -1.078090
                                CHANNELS 3 Zrotation Xrotation Yrotation
                                JOINT LeftFinger31
                                {
                                    OFFSET   4.646930   0.000000   0.000000
                                    CHANNELS 3 Zrotation Xrotation Yrotation
                                    JOINT LeftFinger32
                                    {
                                        OFFSET   2.323470   0.000000   0.000000
                                        CHANNELS 3 Zrotation Xrotation Yrotation
                                        End Site
                                        {
                                            OFFSET   2.273050   0.000000   0.000000
                                        }
                                    }
                                }
                            }
                            JOINT LeftFinger4
                            {
                                OFFSET   7.435090   0.000000  -3.252850
                                CHANNELS 3 Zrotation Xrotation Yrotation
                                JOINT LeftFinger41
                                {
                                    OFFSET   3.717550   0.000000   0.000000
                                    CHANNELS 3 Zrotation Xrotation Yrotation
                                    JOINT LeftFinger42
                                    {
                                        OFFSET   1.858770   0.000000   0.000000
                                        CHANNELS 3 Zrotation Xrotation Yrotation
                                        End Site
                                        {
                                            OFFSET   1.818440   0.000000   0.000000
                                        }
                                    }
                                }
                            }
                        }
                    }
                }
            }
            JOINT RightCollar
            {
                OFFSET  -3.911910  19.017000  -0.467062
                CHANNELS 3 Zrotation Xrotation Yrotation
                JOINT RightShoulder
                {
                    OFFSET -10.383700   0.000014   0.000000
                    CHANNELS 3 Zrotation Xrotation Yrotation
                    JOINT RightElbow
                    {
                        OFFSET -26.662100   0.001225   0.001091
                        CHANNELS 3 Zrotation Xrotation Yrotation
                        JOINT RightWrist
                        {
                            OFFSET -28.869000  -0.000020  -0.000085
                            CHANNELS 3 Zrotation Xrotation Yrotation
                            JOINT RightFinger0
                            {
                                OFFSET  -2.044650  -2.323490   3.252850
                                CHANNELS 3 Zrotation Xrotation Yrotation
                                JOINT RightFinger01
                                {
                                    OFFSET  -3.088130   0.000000   0.000000
                                    CHANNELS 3 Zrotation Xrotation Yrotation
                                    JOINT RightFinger02
                                    {
                                        OFFSET  -2.639460   0.000000   0.000000
                                        CHANNELS 3 Zrotation Xrotation Yrotation
                                        End Site
                                        {
                                            OFFSET  -2.582190   0.000000   0.000000
                                        }
                                    }
                                }
                            }
                            JOINT RightFinger1
                            {
                                OFFSET  -8.364480   0.000000   3.252850
                                CHANNELS 3 Zrotation Xrotation Yrotation
                                JOINT RightFinger11
                                {
                                    OFFSET  -4.646930   0.000000   0.000000
                                    CHANNELS 3 Zrotation Xrotation Yrotation
                                    JOINT RightFinger12
                                    {
                                        OFFSET  -2.323470   0.000000   0.000000
                                        CHANNELS 3 Zrotation Xrotation Yrotation
                                        End Site
                                        {
                                            OFFSET  -2.273050   0.000000   0.000000
                                        }
                                    }
                                }
                            }
                            JOINT RightFinger2
                            {
                                OFFSET  -8.364480   0.000000   1.078090
                                CHANNELS 3 Zrotation Xrotation Yrotation
                                JOINT RightFinger21
                                {
                                    OFFSET  -5.111620   0.000000   0.000000
                                    CHANNELS 3 Zrotation Xrotation Yrotation
                                    JOINT RightFinger22
                                    {
                                        OFFSET  -2.788160   0.000000   0.000000
                                        CHANNELS 3 Zrotation Xrotation Yrotation
                                        End Site
                                        {
                                            OFFSET  -2.727660   0.000000   0.000000
                                        }
                                    }
                                }
                            }
                            JOINT RightFinger3
                            {
                                OFFSET  -7.899780   0.000000  -1.078090
                                CHANNELS 3 Zrotation Xrotation Yrotation
                                JOINT RightFinger31
                                {
                                    OFFSET  -4.646930   0.000000   0.000000
                                    CHANNELS 3 Zrotation Xrotation Yrotation
                                    JOINT RightFinger32
                                    {
                                        OFFSET  -2.323470   0.000000   0.000000
                                        CHANNELS 3 Zrotation Xrotation Yrotation
                                        End Site
                                        {
                                            OFFSET  -2.273050   0.000000   0.000000
                                        }
                                    }
                                }
                            }
                            JOINT RightFinger4
                            {
                                OFFSET  -7.435090   0.000000  -3.252850
                                CHANNELS 3 Zrotation Xrotation Yrotation
                                JOINT RightFinger41
                                {
                                    OFFSET  -3.717550   0.000000   0.000000
                                    CHANNELS 3 Zrotation Xrotation Yrotation
                                    JOINT RightFinger42
                                    {
                                        OFFSET  -1.858760   0.000000   0.000000
                                        CHANNELS 3 Zrotation Xrotation Yrotation
                                        End Site
                                        {
                                            OFFSET  -1.818440   0.000000   0.000000
                                        }
                                    }
                                }
                            }
                        }
                    }
                }
            }
        }
    }
    JOINT LeftHip
    {
        OFFSET   9.783030   0.000000   0.000000
        CHANNELS 3 Zrotation Xrotation Yrotation
        JOINT LeftKnee
        {
            OFFSET   0.000063 -41.789100   0.000608
            CHANNELS 3 Zrotation Xrotation Yrotation
            JOINT LeftAnkle
            {
                OFFSET   0.000048 -41.133200  -0.000184
                CHANNELS 3 Zrotation Xrotation Yrotation
                JOINT LeftToe
                {
                    OFFSET   0.000000  -6.358960  14.674500
                    CHANNELS 3 Zrotation Xrotation Yrotation
                    End Site
                    {
                        OFFSET   0.000000   0.000000   3.913200
                    }
                }
            }
        }
    }
    JOINT RightHip
    {
        OFFSET  -9.783030   0.000000   0.000000
        CHANNELS 3 Zrotation Xrotation Yrotation
        JOINT RightKnee
        {
            OFFSET   0.000071 -41.789100   0.001239
            CHANNELS 3 Zrotation Xrotation Yrotation
            JOINT RightAnkle
            {
                OFFSET   0.000037 -41.133200  -0.000166
                CHANNELS 3 Zrotation Xrotation Yrotation
                JOINT RightToe
                {
                    OFFSET   0.000000  -6.358960  14.674500
                    CHANNELS 3 Zrotation Xrotation Yrotation
                    End Site
                    {
                        OFFSET   0.000000   0.000000   3.913200
                    }
                }
            }
        }
    }
}
MOTION
Frames: 4
Frame Time:   0.016667
  1.565600  89.380500  -0.812552  -3.884280 -18.815500  -2.819530  -0.124340  10.731500   1.768800  -0.609367  21.453600   3.660970  -1.732650 -10.668900  -0.321004  -3.137010 -21.574100   9.787340  -8.979670  -5.804800   0.210157 -65.119200  31.555900  -7.233690   0.465360  -6.567420 -21.199200  17.863600 -13.261600   7.636430  39.452200  33.737200 -58.042000 -33.286500  -0.000600  -0.000000 -11.643200   0.000396  -0.003059 -34.859200   8.000860 -11.300600 -29.169900   0.008601  -0.000940 -20.418900   0.000508  -0.009832 -29.376700   0.863610  -1.533900 -44.082400   0.001578  -0.001794 -29.358900   0.003503  -0.004472 -28.779000   0.847751  -1.542910 -41.879300   0.000250  -0.001823 -27.891600   0.007335  -0.010631 -34.309500   0.396388  -0.580856 -51.467600   0.000314  -0.000179 -34.277400   0.000730  -0.009737  13.794000  -4.795300  15.933100  46.972800  11.839000  33.454600 -20.219400 -49.342000 103.459000  84.855700   0.305296  81.981800 -61.386200  41.089200  62.929000  11.550300  -0.011108   0.002326   0.775155  -0.005097   0.018730   9.389520   0.835172   6.010640   6.569290  -0.117963  -0.048516   4.598520  -0.084249  -0.027531   7.627600  -0.130878   0.712490   4.780690  -0.074246  -0.028192   3.183940  -0.050834  -0.014862   1.715280  -0.425030  -6.445240   3.301680  -0.050450  -0.027683   2.198930  -0.033965  -0.017154  12.719500  -1.577550  -6.213940  19.207100  -0.172234  -0.021881  12.791900  -0.113422   0.003019   1.171670  20.475200   4.882280   0.024868  -0.007112   5.093120   0.046694  -3.245720   2.114730   0.000000   0.000000  -0.000000   3.540430  13.930800  -0.136109  -3.633600  13.397600 -10.093300   1.906310  -8.680200  -2.257950   0.000000   0.000000   0.000000
  1.556140  89.354600  -0.774645  -3.915600 -18.785000  -2.834260  -0.119427  10.700200   1.701460  -0.584650  21.391800   3.520910  -1.726050 -10.668600  -0.320112  -3.126880 -21.572400   9.831220  -8.950660  -5.763150   0.349764 -65.159900  31.633400  -7.132390   0.345493  -6.671470 -21.134500  17.636000 -13.139600   7.586540  39.620600  34.010200 -58.285400 -33.279000  -0.000717  -0.000125 -11.639400   0.000379  -0.003043 -34.719400   7.970670 -11.323500 -29.059700   0.008604  -0.000934 -20.341700   0.000501  -0.009829 -29.263100   0.874991  -1.562220 -43.913900   0.001870  -0.001774 -29.246700   0.003468  -0.004484 -28.774200   0.862198  -1.569580 -41.641600   0.000217  -0.001806 -27.733200   0.007353  -0.010617 -34.173000   0.426575  -0.628833 -51.263400   0.000283  -0.000201 -34.141300   0.000698  -0.009776  13.786900  -4.592460  15.984000  47.388000  11.767900  33.487100 -20.603300 -49.965300 103.636000  83.340300  -3.661690  79.160500 -63.410200  42.320900  66.035400  12.017700   0.036181  -0.007916   1.008820   0.019548   0.049400   2.402960   0.452696   4.992920   2.590930  -0.085776  -0.044997   2.000870  -0.061142  -0.026374   0.886319   0.181687  -0.329838   1.256690  -0.046652  -0.022846   0.698405  -0.031885  -0.013104  -6.831210   0.774365  -6.446800   0.739640  -0.022466  -0.008572   0.302614  -0.015117  -0.005165   7.089670  -0.762809  -6.341020  10.650200  -0.107759  -0.017754   7.110830  -0.071928   0.000562   1.228080  20.486300   4.883880   0.001952  -0.007301   5.080980   0.048185  -3.293520   2.126170  -0.000000   0.000000   0.000000   3.580320  13.926300  -0.109970  -3.630130  13.398300 -10.091800   1.893100  -8.697290  -2.259860   0.000000   0.000000   0.000000
  1.542180  89.326200  -0.740709  -3.961640 -18.760900  -2.898350  -0.113629  10.651300   1.637570  -0.558266  21.294600   3.387440  -1.718990 -10.666300  -0.318303  -3.112240 -21.569200   9.887720  -8.906760  -5.680650   0.492428 -65.202900  31.738500  -7.029320   0.254678  -6.752750 -20.966700  17.477900 -12.912300   7.549420  39.721900  34.187300 -58.402100 -33.271500  -0.000840  -0.000255 -11.635700   0.000360  -0.003021 -34.561100   7.944980 -11.346600 -28.923900   0.008610  -0.000926 -20.246700   0.000493  -0.009826 -29.129800   0.886371  -1.590540 -43.712900   0.002156  -0.001755 -29.112800   0.003435  -0.004497 -28.767800   0.876644  -1.596250 -41.326200   0.000184  -0.001788 -27.523300   0.007371  -0.010604 -33.966300   0.472275  -0.701584 -50.954000   0.000251  -0.000223 -33.935300   0.000667  -0.009815  13.723600  -4.265430  15.999400  47.930700  11.558300  33.715500 -21.413700 -50.210700 103.203000  79.209600 -11.904000  78.295400 -64.175400  43.159000  68.094700  12.896600   0.113528  -0.026052   1.448280   0.060095   0.071444  -3.260110   0.243896   3.182260   0.472125  -0.029286  -0.025808   0.330495  -0.020675  -0.018281  -4.902790   0.567916  -1.595610  -0.000000  -0.000268  -0.005120  -0.420088  -0.000179  -0.003666 -14.395100   1.934290  -6.457920  -0.000000   0.005519   0.003316  -0.337761   0.003730   0.002116   2.775300  -0.168779  -6.782120   4.148240   0.002638  -0.007332   2.762720   0.000401  -0.001894   1.278620  20.497500   4.884410  -0.018729  -0.007328   5.079240   0.050968  -3.346900   2.167990  -0.000000   0.000000  -0.000000   3.620450  13.912600  -0.097768  -3.629580  13.402900 -10.081400   1.872980  -8.709670  -2.260200  -0.000000   0.000000  -0.000000
  1.534410  89.299400  -0.714305  -4.021930 -18.735200  -3.026820  -0.104206  10.577700   1.576490  -0.524895  21.148500   3.258840  -1.696740 -10.599900  -0.311990  -3.069510 -21.437300   9.962790  -8.862160  -5.586760   0.570710 -65.369000  31.788400  -6.816100   0.215353  -6.741260 -20.713800  17.463300 -12.666200   7.542720  39.687400  34.157500 -58.319700 -33.304000  -0.000960  -0.000392 -11.652000   0.000337  -0.003011 -34.454300   7.911010 -11.342100 -28.832400   0.008624  -0.000919 -20.182700   0.000483  -0.009825 -29.042500   0.881957  -1.586680 -43.566100   0.002433  -0.001734 -29.015000   0.003403  -0.004509 -28.763600   0.873848  -1.591420 -41.112800   0.000155  -0.001769 -27.381100   0.007384  -0.010595 -33.822100   0.504132  -0.752611 -50.738200   0.000217  -0.000250 -33.791500   0.000641  -0.009849  13.657300  -3.972970  15.967800  48.301900  11.103900  34.264400 -22.175600 -50.168900 102.027000  75.211100 -19.294900  74.974400 -65.901200  44.361900  70.826600  13.666700   0.186478  -0.047391   1.833420   0.099058   0.100024  -5.397840   0.156685   1.063870   0.059159   0.032323   0.028448  -0.395377   0.022588   0.017944  -7.236930   0.653180  -3.376870  -0.000024   0.041521   0.033317  -0.648193   0.027905   0.022220 -18.298700   2.686950  -7.284390   0.000009   0.002320   0.000891  -0.259257   0.001553   0.000559   0.424655   0.006606  -7.904260   0.873762   0.121847   0.036251   0.421588   0.082247   0.022097   1.317080  20.489800   4.875170  -0.030982   0.042042   5.111790   0.056463  -3.416160   2.248390  -0.000000   0.000000   0.000000   3.661790  13.876400  -0.092847  -3.650420  13.431700 -10.021800   1.854770  -8.715250  -2.223890  -0.000000   0.000000   0.000000
